<?xml version="1.0" encoding="UTF-8"?>
<svg version="1.1" xmlns="http://www.w3.org/2000/svg" width="96" height="96" viewBox="0 0 96 96">
<defs>
  <mask id="invertMask">
    <rect width="96" height="96" fill="white"/>
    <g transform="translate(-11, -3) scale(1.22)">
      <path d="M0 0 C31.68 0 63.36 0 96 0 C96 28.38 96 56.76 96 86 C64.32 86 32.64 86 0 86 C0 57.62 0 29.24 0 0 Z M40.0625 12.25 C38.23965829 14.68045561 37.32968265 16.03285617 37 19 C38.11375 18.835 39.2275 18.67 40.375 18.5 C44 18 44 18 46 18 C44.515 20.475 44.515 20.475 43 23 C46.49087093 27.0042343 48.64951939 28.62671065 54 29 C53.01 29.33 52.02 29.66 51 30 C51.47501758 32.21674869 52.0198699 34.03857099 53.0625 36.0625 C54 38 54 38 54 41 C53.34 41.33 52.68 41.66 52 42 C53.32 42.33 54.64 42.66 56 43 C55.34 44.32 54.68 45.64 54 47 C56.02045442 46.39816251 58.02111039 45.72693904 60 45 C60.33 44.34 60.66 43.68 61 43 C61.99 44.32 62.98 45.64 64 47 C56.08 50.96 56.08 50.96 48 55 C53.02412715 56.67470905 58.00252032 55.51540826 63 54 C65.38247726 52.15186435 66.40797515 50.61546939 68 48 C67.34 47.34 66.68 46.68 66 46 C66 44.68 66 43.36 66 42 C66.66 42.99 67.32 43.98 68 45 C68.93684128 42.47052855 69.16101169 41.37523911 68.078125 38.8515625 C66.5009522 34.68005473 66.30274705 30.38404987 65.96484375 25.97070312 C65.36191088 19.96981463 63.22020807 16.22020807 59 12 C49.18608195 8.9257844 49.18608195 8.9257844 40.0625 12.25 Z M25 18 C21.52836537 24.45382568 22.01929901 33.39419441 24 40.3125 C24.33 41.199375 24.66 42.08625 25 43 C25.66 42.67 26.32 42.34 27 42 C26.98839844 41.09636719 26.97679687 40.19273438 26.96484375 39.26171875 C26.95130859 37.49248047 26.95130859 37.49248047 26.9375 35.6875 C26.92589844 34.51574219 26.91429687 33.34398437 26.90234375 32.13671875 C27 29 27 29 28 26 C26.62831762 23.80961577 26.62831762 23.80961577 25 22 C25.556875 22.268125 26.11375 22.53625 26.6875 22.8125 C29.30093496 23.29726436 29.30093496 23.29726436 31.75 20.6875 C34.21397889 18.3285839 34.21397889 18.3285839 34 16 C34.99 15.67 35.98 15.34 37 15 C32.34797716 14.57708883 29.07160378 15.77214133 25 18 Z M30.82421875 22.5546875 C28.35413389 25.86576484 28.46560336 28.21475702 28.375 32.3125 C28.23494541 37.63996115 27.62617925 41.97185376 26 47 C27.32 47.33 28.64 47.66 30 48 C30.19335938 48.83144531 30.38671875 49.66289063 30.5859375 50.51953125 C30.84632812 51.60621094 31.10671875 52.69289063 31.375 53.8125 C31.63023438 54.89144531 31.88546875 55.97039063 32.1484375 57.08203125 C32.88732881 60.15533343 32.88732881 60.15533343 35 63 C37.23425537 61.03833352 39.45819696 59.06784802 41.6640625 57.07421875 C43.40773006 55.52591194 45.21980797 54.05402647 47.0625 52.625 C49.65272128 49.11566794 49.33781994 46.63442659 49.109375 42.3828125 C48.98990504 39.78007416 49.329421 37.51467125 50 35 C49.34 35 48.68 35 48 35 C47.67 35.66 47.34 36.32 47 37 C46.773125 35.824375 46.54625 34.64875 46.3125 33.4375 C45.15763438 28.9303161 43.48490619 25.17473129 40 22 C36.12555425 20.70851808 34.22564743 20.1242232 30.82421875 22.5546875 Z M23 41 C24 45 24 45 24 45 Z M59.890625 55.0234375 C57.7449768 55.74831865 55.5864084 56.43518868 53.421875 57.1015625 C40.38094283 60.65615609 40.38094283 60.65615609 30.73828125 69.18359375 C30.37283203 70.08271484 30.37283203 70.08271484 30 71 C35.80601855 69.24447943 41.05705347 66.63512874 46.45898438 63.921875 C50.92528234 61.75148904 55.09257995 60.35654522 59.98876953 59.4921875 C63.2780727 58.68723057 65.39532436 57.13716975 68 55 C68 54.34 68 53.68 68 53 C65.0942037 53 62.61034092 54.08469684 59.890625 55.0234375 Z M70 55 C69.95875 55.61875 69.9175 56.2375 69.875 56.875 C69 59 69 59 66.625 60.125 C63.69116025 60.83316822 60.84980217 61.34392567 57.875 61.8125 C51.55653954 62.89740049 45.68462469 65.03410886 40 68 C39.67 68.66 39.34 69.32 39 70 C46.99221623 69.02345911 54.87451658 67.72733946 62.75 66.0625 C63.53616699 65.90491211 64.32233398 65.74732422 65.13232422 65.58496094 C69.89620157 64.62747127 69.89620157 64.62747127 73 61 C73.16713569 58.37468476 73.16713569 58.37468476 73 56 C72.01 55.67 71.02 55.34 70 55 Z M74 62 C73.01 63.485 73.01 63.485 72 65 C70.21240234 65.6159668 70.21240234 65.6159668 68.0859375 65.94921875 C67.32539062 66.07490234 66.56484375 66.20058594 65.78125 66.33007812 C64.9871875 66.44802734 64.193125 66.56597656 63.375 66.6875 C62.17230469 66.88182617 62.17230469 66.88182617 60.9453125 67.08007812 C58.96536573 67.39828386 56.98288615 67.70065637 55 68 C55 68.33 55 68.66 55 69 C62.90488328 71.74251053 68.54287913 70.50028122 76 67 C75.67 65.35 75.34 63.7 75 62 C74.67 62 74.34 62 74 62 Z M44 71 C44 71.66 44 72.32 44 73 C50.27 73.66 56.54 74.32 63 75 C62.3295913 71.91610733 62.3295913 71.91610733 60.0625 70.8125 C54.78018929 69.41107063 49.20177273 69.26607576 44 71 Z " fill="black"/>
    </g>
  </mask>
</defs>
<rect width="96" height="96" fill="white" mask="url(#invertMask)"/>
</svg>
